<svg xmlns="http://www.w3.org/2000/svg" viewBox="0 0 200 140"><rect x="0" y="0" width="200" height="140" fill="#FAFAFA"/><rect x="65" y="30" width="100" height="80" fill="#FAFAFA"/><line x1="50" y1="70" x2="150" y2="70" stroke="#2E8B7F" stroke-width="2.5"/><line x1="50" y1="88" x2="150" y2="88" stroke="#2E8B7F" stroke-width="2.5"/><polygon points="155,40 45,70 155,70" fill="#3D2E8C"/><polygon points="155,70 45,70 155,100" fill="#3D2E8C"/><polygon points="45,70 10,40 10,60 25,60 25,80 10,80 10,100" fill="#2E8B7F"/><ellipse cx="160" cy="70" rx="16" ry="12.307692307692307" fill="#3D2E8C"/><polygon points="90,40 110,40 88,20" fill="#2E8B7F"/><polygon points="90,100 110,100 88,120" fill="#2E8B7F"/><circle cx="160" cy="70" r="3.5" fill="#111111"/></svg>