<svg xmlns="http://www.w3.org/2000/svg" viewBox="0 0 200 140"><rect x="0" y="0" width="200" height="140" fill="#FAFAFA"/><rect x="35" y="20" width="130" height="100" fill="#2E8B7F"/><line x1="50" y1="70" x2="150" y2="70" stroke="#6B7A2F" stroke-width="2.5"/><rect x="45" y="81" width="110" height="14" fill="#6B7A2F"/><polygon points="155,40 45,70 155,70" fill="#3D2E8C"/><polygon points="155,70 45,70 155,100" fill="#3D2E8C"/><polygon points="45,70 10,40 10,60 25,60 25,80 10,80 10,100" fill="#3D2E8C"/><circle cx="160" cy="70" r="16" fill="#2E8B7F"/><polygon points="90,40 110,40 88,20" fill="#6B7A2F"/><polygon points="90,100 110,100 112,120" fill="#6B7A2F"/><circle cx="160" cy="70" r="9" fill="#FAFAFA" stroke="#111111" stroke-width="2"/><circle cx="160" cy="70" r="3.5" fill="#111111"/></svg>